<svg xmlns="http://www.w3.org/2000/svg" viewBox="0 -0.5 51 27" shape-rendering="crispEdges">
<path stroke="#00e979" d="M1 1h4M1 2h8M1 3h8M1 4h8M1 5h8M17 5h4M1 6h8M17 6h8M1 7h8M17 7h8M1 8h8M17 8h8M1 9h8M17 9h8M33 9h4M1 10h8M17 10h8M33 10h8M1 11h8M17 11h8M33 11h8M1 12h8M17 12h8M33 12h8M1 13h8M17 13h8M33 13h8M1 14h8M17 14h8M33 14h8M1 15h8M17 15h8M33 15h4M1 16h8M17 16h8M1 17h8M17 17h8M1 18h8M17 18h8M1 19h8M17 19h4M1 20h8M1 21h8M1 22h8M1 23h4" />
<path stroke="#dfff0b" d="M9 3h4M9 4h8M9 5h8M9 6h8M9 7h8M25 7h4M9 8h8M25 8h8M9 9h8M25 9h8M9 10h8M25 10h8M9 11h8M25 11h8M41 11h4M9 12h8M25 12h8M41 12h8M9 13h8M25 13h8M41 13h4M9 14h8M25 14h8M9 15h8M25 15h8M9 16h8M25 16h8M9 17h8M25 17h4M9 18h8M9 19h8M9 20h8M9 21h4" />
<path stroke="#b2cc09" d="M45 13h4M41 14h4M31 17h2M25 18h4M13 21h4M9 22h4" />
<path stroke="rgba(0,0,0,0.5019607843137255)" d="M49 13h1M45 14h5M41 15h5M37 16h5M33 17h5M29 18h5M25 19h5M21 20h5M17 21h5M13 22h5M9 23h5M5 24h5M2 25h4" />
<path stroke="#00ba61" d="M37 15h4M33 16h4M21 19h4M17 20h4M5 23h4M1 24h4" />
<path stroke="#b9d309" d="M29 17h1" />
<path stroke="#b4ce09" d="M30 17h1" />
</svg>